<?xml version="1.0" encoding="UTF-8"?>
<svg xmlns="http://www.w3.org/2000/svg" version="1.1" xmlns:xlink="http://www.w3.org/1999/xlink" viewBox="0 0 2000 2000">
  <defs>
    <clipPath id="clippath">
      <circle cx="1000" cy="1000" r="682.364" style="fill: none;"/>
    </clipPath>
  </defs>
  <!-- Generator: Adobe Illustrator 28.7.7, SVG Export Plug-In . SVG Version: 1.2.0 Build 194)  -->
  <g>
    <g id="Design">
      <rect id="Baclground" width="2000" height="2000" style="fill: #fff;"/>
      <circle cx="1000" cy="1000" r="682.364" style="fill: #fee;"/>
      <g style="clip-path: url(#clippath);">
        <g>
          <path d="M1174.298,1685.699h-359.65c-.409-.881-.207-1.587.607-2.124,1.532-.905,3.213-1.128,4.954-1.098,113.866-.697,227.73-.135,341.593-.306,3.134-.005,6.279-.142,9.396.362.871.164,1.685.485,2.446.939.835.558,1.053,1.302.655,2.227Z" style="fill: #b7bdc9;"/>
          <path d="M795.79,1685.699h-86.208c-.083-.426-.165-.852-.248-1.278.573-.677,1.277-1.165,2.108-1.474,5.298-1.276,10.691-.674,16.041-.695,19.242-.077,38.485-.054,57.727-.009,3.33.008,6.742-.371,9.88,1.263.863.529,1.095,1.262.701,2.193Z" style="fill: #b7bdc9;"/>
          <path d="M657.048,1685.699c.014-.465.028-.929.042-1.394,1.278-1.152,2.807-1.662,4.496-1.768,13.307-.251,26.617-.557,39.925.158.802.157,1.543.467,2.226.913.727.569.879,1.268.456,2.091h-47.145Z" style="fill: #b6bcc7;"/>
          <path d="M1223.842,1684.024c.098.558.197,1.116.295,1.675h-44.451c-.094-.402-.188-.805-.283-1.207.513-.673,1.166-1.157,1.954-1.463,12.192-1.441,24.423-.542,36.642-.553,2.111-.102,4.001.634,5.844,1.549Z" style="fill: #b6bcc7;"/>
          <path d="M795.79,1685.699c-.007-.362-.026-.724-.056-1.086.488-.721,1.139-1.238,1.947-1.56,5.73-.224,11.643-2.426,17.001,1.525,0,.374-.012.747-.035,1.121h-18.858Z" style="fill: #aaaaab;"/>
          <path d="M1179.723,1684.464c-.018.412-.03.823-.037,1.235h-5.388c-.011-.406-.028-.811-.05-1.217,1.819-1.72,3.644-1.722,5.475-.018Z" style="fill: #ababac;"/>
          <path d="M704.193,1685.699c-.023-.387-.049-.775-.077-1.161,1.802-1.799,3.633-1.78,5.49-.087-.012.416-.02.832-.025,1.248h-5.388Z" style="fill: #aaabac;"/>
          <path d="M709.606,1684.45c-1.83.029-3.66.058-5.49.087l.073-.294c-4.314-1.813-7.189-5.214-9.907-8.836-9.8-13.065-18.002-27.204-27.427-41.329-1.464,4.54-1.485,8.529-1.278,12.47.52,9.909-1.294,19.662-1.825,29.499-.152,2.811-.501,5.864-2.712,8.134-1.317.041-2.633.082-3.95.124,1.117-15.654,2.217-31.31,3.361-46.963.327-4.473.58-8.966,1.249-13.393.427-2.825-1.194-4.703-2.27-6.831-10.515-20.804-21.833-41.195-31.942-62.21-14.791-30.748-26.697-62.634-37.759-94.866-9.381-27.332-19.191-54.554-25.126-82.895-7.349-35.091-15.643-69.982-22.006-105.288-2.18-12.098-5.816-23.91-7.466-36.167-4.826-35.864-5.284-71.57,3.173-107.008,5.74-24.053,17.895-44.31,36.45-60.714,26.993-23.866,56.593-44.097,87.404-62.624,17.551-10.553,34.149-22.341,49.103-36.397,5.444-5.117,10.135-10.76,13.881-17.221,5.067-8.74,10.906-16.976,16.595-25.313,6.962-10.203,16.127-16.083,28.819-15.169,2.801.202,4.043-1.008,4.976-3.321,2.514-6.227,5.093-12.428,7.717-18.609.744-1.754,1.03-3.511.195-5.201-7.985-16.159-7.835-33.386-6.773-50.745.036-.592.236-1.302-.49-1.708-7.559,5.027-12.244,4.877-19.95-.629-5.051-3.609-8.877-8.338-11.476-13.867-8.922-18.986-15.394-38.791-17.196-59.758-.955-11.113.544-22.056,9.383-30.424.902-.854,1.507-1.781.54-2.849-13.25-14.627-13.765-32.59-12.894-50.708.721-15.004,2.373-29.95,6.565-44.479,3.467-12.014,9.1-22.87,17.279-32.372,9.923-11.529,22.393-18.593,37.455-20.584,11.265-1.489,21.791-4.77,31.79-10.18,16.062-8.691,33.291-13.015,51.604-13.056,16.152-.037,32.366-1.12,48.387,1.552,31.008,5.172,58.881,17.433,81.952,39.053,16.461,15.425,26.865,34.577,31.013,56.917,1.933,10.412.231,20.52-2.62,30.534-2.339,8.214-5.847,15.985-8.949,23.909-1.716,4.382-3.434,8.754-4.542,13.717,7.497-1.079,11.101,3.711,13.837,9.398,3.963,8.237,5.48,17.11,5.311,26.149-.288,15.438-3.21,30.278-11.34,43.745-2.446,4.052-3.874,8.561-5.262,13.063-2.088,6.771-4.778,13.137-11.704,16.431-2.127,1.012-1.847,2.915-1.929,4.615-.668,13.964-3.555,27.535-6.977,41.035-2.237,8.827-5.853,16.932-11.595,24.021-5.509,6.8-11.002,13.617-16.678,20.276-6.316,7.41-8.054,16.847-11.61,25.478-.295.716.018,1.753.232,2.595,1.544,6.079,3.038,12.173,4.742,18.207,1.415,5.008,4.851,8.605,9.161,11.218,24.33,14.752,48.385,30.028,75.668,39.102,10.412,3.463,20.685,7.329,30.601,12.092,23.666,11.368,39.869,29.163,47.767,54.438,7.104,22.737,11.575,46.046,15.877,69.41,4.995,27.124,7.095,54.684,12.245,81.776,6.873,36.156,10.855,72.721,15.692,109.162,2.331,17.557,3.329,35.296,5.864,52.818,2.18,15.068,2.455,30.43,6.649,45.199.06.212.2.401.318.63,2.04.373,2.496-1.51,3.399-2.575,2.175-2.564,4.213-5.248,6.224-7.945,6.499-8.717,14.937-14.619,25.187-18.275,19.693-7.023,40.05-11.44,60.444-15.66,17.757-3.675,35.964-5.158,53.282-10.989,6.171-2.078,12.472-3.629,18.907-4.668,4.024-.649,8.066-.767,12.083-.347,8.488.888,11.214,3.889,11.708,12.445.546.564,1.117.393,1.696.063,19.028-10.855,39.485-17.995,60.616-23.427,5.852-1.504,11.592-3.44,17.43-5.006,6.556-1.759,12.438-.326,14.785,3.379,2.29,3.616,1.141,10.032-2.896,14.939-4.495,5.465-10.108,9.634-16.553,12.415-16.34,7.053-30.126,17.529-42.476,30.209-9.771,10.032-21.529,17.63-33.297,25.015-18.975,11.908-37.743,24.217-57.993,33.957-13.727,6.603-27.622,12.836-41.743,18.563-16.632,6.746-32.621,14.821-48.275,23.582-4.689,2.625-9.434,5.173-14.29,7.467-2.791,1.319-3.771,2.686-3.481,6.111,1.005,11.875,3.328,23.535,5.095,35.28,2.972,19.752,5.014,39.586,6.084,59.525.915,17.052,3.812,33.847,6.513,50.669-1.68.368-3.365.593-5.073.183-3.632-2.806-3.514-7.117-4.229-11-3.173-17.23-4.37-34.702-5.509-52.133-1.45-22.184-4.147-44.191-7.507-66.139-.408-2.666-.64-5.339-.852-8.025-.527-6.678-1.739-7.345-7.99-4.344-5.866,2.816-11.655,5.792-17.465,8.724-7.213,3.639-14.383,7.391-21.95,10.24-4.861,1.83-6.567,4.989-6.857,10.198-.863,15.506,4.905,29.581,9.148,43.879,6.066,20.444,15.066,39.86,22.731,59.746,1.059,2.747,3.448,5.506,1.294,8.809,0,0,.141.303.141.303-1.825.006-3.65.012-5.475.018,0,0,.131-.294.131-.294-3.459-2.515-4.827-6.402-6.324-10.095-7.729-19.067-15.388-38.16-20.936-58.024-1.448-5.183-2.608-10.371-2.975-15.724-.478-.762.505-1.807-.463-2.489.483,1.047.236,2.22.583,3.31.367,7.468-.996,14.764-2.427,21.986-1.541,7.78-6.022,10.269-13.903,8.356-4.143-1.006-8.226-2.325-12.149-3.956-4.495-1.869-7.334-1.294-8.146,4.004-.202,1.321-.801,2.564-1.219,3.843-1.937,5.915-5.788,9.358-12.151,9.962-14.284,1.354-28.528,3.1-42.795,4.623-32.768,3.498-65.764,3.489-98.552,6.62-4.257.407-8.472,1.067-12.593,2.139-34.319,8.927-69.608,13.385-103.866,22.581-5.856,1.572-11.93,1.78-17.877,2.792-1.301.154-2.602.309-3.903.463-5.804-.152-11.608-.305-17.411-.457.595-3.496,3.694-3.611,6.121-4.139,33.109-7.19,65.804-16.292,99.321-21.597,15.536-2.459,30.494-7.62,46.069-9.857,9.319-1.339,18.665-2.221,28.12-2.44,34.521-.799,68.942-3.237,103.227-7.417,2.232-.272,4.454-.507,6.701-.57,10.128-.285,11.251-1.142,13.342-11.194,1.695-8.15,1.811-16.564,1.955-24.754.344-19.482,1.01-38.983-.678-58.509-1.16-13.426-1.957-26.826-5.201-39.95-1.244-5.033-3.168-9.812-5.48-14.447-1.963-3.935-4.942-5.409-9.357-4.659-32.74,5.56-65.568,10.721-97.824,18.727-32.26,8.008-65.003,13.659-97.534,20.31-13.963,2.855-28.465,3.893-42.808.889-16.777-3.515-29.848-12.017-37.461-27.808-7.118-14.765-13.628-29.799-18.578-45.44-2.237-7.069-4.773-14.017-7.296-20.979-6.205-17.122-10.966-34.629-14.627-52.48-3.202-15.613-8.926-30.674-11.84-46.289-5.079-27.222-12.431-53.75-20.981-80.017-1.071-3.291-3.453-8.289.324-9.735,4.474-1.713,5.697,3.831,7.059,7.161,8.6,21.027,14.569,42.742,19.456,64.994,10.776,49.059,21.318,98.273,39.541,145.327,4.21,10.872,9.316,21.389,14.069,32.043,7.089,15.89,19.905,22.978,36.145,25.556,15.786,2.505,31.373.348,46.686-3.035,33.741-7.456,67.704-13.891,101.244-22.288,13.048-3.267,26.456-5.016,39.586-8.016,6.174-1.41,6.388-1.858,2.637-6.693-34.903-44.982-63.352-94.165-93.189-142.463-17.796-28.807-33.615-58.887-54.516-85.732-11.299-14.513-21.897-29.599-35.447-42.225-29.529-27.517-53.666-59.67-78.645-91.128-15.758-19.846-31.486-39.744-48.915-58.219-5.375-5.697-10.067-12.091-13.905-18.973-3.959-7.101-2.271-10.835,5.427-12.892,7.373-1.97,7.345-1.959,4.635-8.773-4.481-11.267-8.637-22.65-11.469-34.459-.699-2.914-1.644-4.2-4.328-1.81-26.498,23.605-58.554,39.088-87.166,59.611-14.053,10.079-27.933,20.353-40.859,31.857-23.026,20.494-34.888,46.442-39.264,76.754-5.87,40.658-1.178,80.602,6.545,120.333,6.85,35.241,15.037,70.219,22.699,105.3,5.955,27.264,15.176,53.538,24.207,79.849,9.542,27.799,18.746,55.782,31.456,82.347,23.061,48.198,46.703,96.101,78.875,139.156,1.94,2.597,4.817,4.9,4.084,8.797l.169.305Z" style="fill: #010101;"/>
          <path d="M1144.644,1599.509c3.07,11.663,6.022,23.354,10.02,34.755,5.925,16.899,12.515,33.531,19.715,49.924-1.566.055-3.133.158-4.699.158-115.694.012-231.388.016-347.082.01-1.337,0-2.675-.157-4.013-.241,11.838-4.132,24.263-5.931,36.337-9.144,19.672-5.235,39.844-8.101,59.77-12.139,10.523-2.132,20.74-5.58,31.375-7.21,6.402-.981,12.784-2.053,19.287-2.298,12.982-.487,26.008-.71,38.932-1.648,18.936-1.375,37.916-2.432,56.794-4.79,11.965-1.495,23.984-2.673,35.983-3.949,3.262-.347,4.592-1.953,5.962-4.445,2.635-4.792,3.406-10.106,4.585-15.745,5.953,2.043,11.608,4.017,17.289,5.917,2.117.708,4.257,1.495,6.449,1.803,4.55.641,6.344-.779,8.12-5.112,1.574-3.84,1.074-7.95,2.019-11.888,1.089-4.536,1.289-9.287,1.876-13.944.42-.635.847-.64,1.282-.015Z" style="fill: #29395d;"/>
          <path d="M709.437,1684.146c-8.838-12.136-17.371-24.479-25.634-37.017-7.158-10.862-14.105-21.854-20.13-33.376-10.81-20.672-21.548-41.385-31.997-62.241-11.963-23.879-21.519-48.769-30.26-73.984-8.07-23.282-16.222-46.53-23.573-70.058-6.219-19.903-10.404-40.278-14.915-60.583-3.879-17.461-7.571-34.964-11.354-52.446-4.066-18.787-7.808-37.622-10.485-56.679-3.029-21.566-5.04-43.21-3.717-64.938,1.153-18.951,3.142-37.897,9.972-55.913,7.653-20.189,20.373-36.405,36.757-50.479,21.692-18.634,45.457-34.213,69.283-49.748,13.881-9.05,28.486-16.993,41.479-27.387,3.847-3.077,7.607-6.262,11.436-9.36,2.057-1.664,4.179-3.249,6.459-5.015,2.405,4.454,2.287,9.053,3.745,13.221,3.849,10.994,7.172,22.173,12.146,32.758,1.715,3.649,1.429,3.964-2.509,4.815-2.621.567-5.301.884-7.891,1.559-4.197,1.093-5.475,3.632-3.451,7.526,4.263,8.199,9.89,15.514,16.126,22.257,14.312,15.473,27.469,31.894,40.784,48.206,18.689,22.896,36.173,46.754,55.738,68.958,8.627,9.79,17.936,18.856,27.22,27.944,16.584,16.233,30.288,34.749,44.032,53.304,14.45,19.508,26.196,40.661,38.653,61.404,14.073,23.433,28.729,46.515,42.973,69.846,9.695,15.88,19.532,31.656,30.034,47.024,10.116,14.803,20.682,29.269,31.513,43.548,1.327,1.749,2.514,3.605,3.966,5.7-12.903,3.812-25.67,5.868-38.327,8.261-14.305,2.704-28.429,6.064-42.491,9.757-15.373,4.037-31.177,5.97-46.633,9.593-11.753,2.755-23.42,6.079-35.431,7.406-15.773,1.743-31.519,3.357-47.055-2.624-10.178-3.919-17.824-10.027-22.671-19.738-7.915-15.857-15.334-31.921-20.471-48.937-3.951-13.086-9.471-25.629-13.218-38.792-4.781-16.797-7.52-34.061-11.962-50.939-3.699-14.053-8.2-27.958-10.288-42.366-3.337-23.028-10.906-44.737-19.485-66.182-.975-2.438-1.722-5.062-4.647-6.699-1.234,2.714-.327,4.917.388,7.183,3.706,11.747,7.284,23.536,11.055,35.262,4.124,12.824,6.106,26.109,8.793,39.249,3.724,18.208,10.045,35.777,13.76,53.97,3.547,17.371,7.95,34.46,14.046,51.094,6.931,18.915,12.447,38.36,21.169,56.606,1.933,4.043,3.693,8.171,5.721,12.165,9.366,18.448,25.768,25.476,45.126,26.707,17.545,1.116,34.925-1.464,51.867-5.782,18.67-4.757,37.772-7.167,56.502-11.519,14.591-3.39,29.069-7.262,43.798-10.08,14.051-2.688,27.959-6.247,42.09-8.344,11.72-1.74,23.468-3.168,35.019-5.875,4.011-.94,6.813.439,8.867,4.077,4.582,8.116,7.192,16.89,8.734,25.969,5.132,30.221,4.506,60.741,3.709,91.182-.219,8.372.285,17.064-2.228,25.346-.52,1.713-.993,3.441-1.447,5.172-.987,3.762-3.39,5.594-7.297,5.646-16.814.222-33.338,3.623-50.122,4.483-13.62.697-27.254,1.635-40.849,2.714-12.328.979-24.668.316-36.939,1.342-14.277,1.195-28.326,3.958-42.162,7.731-15.126,4.125-30.732,5.821-46.041,9.061-21.228,4.492-42.252,9.836-63.432,14.516-5.414,1.196-11.05,1.697-16.017,4.513-.513.164-1.025.328-1.538.492-15.386-.087-30.772-.177-46.158-.26-13.379-.073-26.759-.138-40.138-.207Z" style="fill: #29395d;"/>
          <path d="M661.04,1684.181c1.705-14.869,3.091-29.752,2.967-44.75-.025-3.073.888-6.153,1.536-10.306,13.263,18.789,23.302,38.856,38.647,55.119-14.384-.021-28.767-.042-43.15-.063Z" style="fill: #29395d;"/>
          <path d="M1179.582,1684.161c-5.723-14.554-11.466-29.099-17.163-43.663-5.378-13.749-10.395-27.618-13.699-42.044-.249-1.087-.388-2.244-.869-3.227-4.45-9.093-3.192-18.776-3.044-28.351.037-2.404.584-4.13,3.238-5.156,15.898-6.149,30.78-14.471,46.098-21.864,1.21-.584,2.409-1.192,3.629-1.755,2.146-.991,3.483-.134,4.009,1.991.372,1.504.635,3.073.667,4.618.182,8.749,2.277,17.249,3.286,25.89,1.138,9.745,2.419,19.473,3.523,29.222,2.209,19.512,2.411,39.19,5.136,58.677,1.207,8.629,2.395,17.227,4.376,25.709-13.063-.015-26.125-.031-39.188-.046Z" style="fill: #29395d;"/>
          <path d="M999.165,800.79c.003,8.078.317,16.171-.052,24.233-.891,19.504-4.093,38.634-11.086,56.938-2.49,6.516-7.061,11.987-11.483,17.268-11.049,13.198-22.234,26.29-34.263,38.64-14.05,14.424-31.241,20.85-50.992,18.99-24.192-2.279-46.826-9.198-65.672-25.695-13.727-12.015-26.276-25.013-34.408-41.504-4.34-8.802-7.616-18.154-9.799-27.792-.439-1.937-.413-4.003-.425-6.01-.046-7.854-.246-15.716.035-23.56.334-9.312-1.454-18.221-4.144-27.032-.456-1.494-1.279-3.043-1.177-4.514.591-8.549-2.015-16.93-1.364-25.425.661-8.621-1.965-16.477-5.455-23.962-3.894-8.35-9.311-15.639-17.004-21.253-6.447-4.705-13.02-9.472-16.562-17.227-2.063-4.517-3.913-9.077-4.575-13.935-1.195-8.773-3.19-17.388-1.388-26.532,1.319-6.692.717-13.772,1.731-20.657,2.403-16.314,6.557-31.956,15.968-45.811,10.266-15.114,24.421-23.935,42.576-25.971,9.495-1.065,18.33-4.015,26.699-8.375,10.972-5.717,22.23-10.573,34.534-12.482,5.938-.921,11.927-1.773,17.919-2.021,8.289-.343,16.605-.184,24.907-.068,29.285.409,56.283,8.499,81.528,23.376,11.403,6.719,20.95,15.331,29.723,24.92,6.072,6.638,10.3,14.7,14.028,22.794,3.237,7.028,6.065,14.229,7.523,22.114,1.962,10.613-.054,20.375-2.757,30.33-2.417,8.902-6.647,17.09-9.859,25.678-5.275,14.103-7.428,28.945-10.611,43.546-.475,2.177-.925,4.359-1.386,6.538-3.765-.652-2.892-3.762-3.125-6.146-.36-3.673.356-7.428-.842-11.04-1.703-14.003-1.989-28.118-3.11-42.173-1.532-19.206-11.62-31.503-28.944-38.418-18.965-7.569-38.855-10.029-59.157-10.851-33.263-1.346-65.617,3.415-97.721,11.794-15.052,3.929-23.59,13.084-27.255,27.442-2.658,10.413-4.284,20.967-4.416,31.846-.359,29.427,2.099,58.554,6.282,87.682,2.209,15.382,4.527,30.543,10.248,45.018,3.214,8.132,16.756,13.734,24.708,10.084,3.028-1.389,5.426-3.876,6.337-7.448.776-3.037,1.513-6.097,2.712-9.017,2.836-6.91,7.885-10.613,15.409-11.122,12.058-.815,23.908-1.66,36.119.711,9.663,1.876,20.123,1.983,29.546-3.336,3.781-2.135,8.342-2.027,12.491-2.28,9.611-.586,19.147-2.132,28.826-1.984,6.574.101,11.834,2.055,15.423,7.781.708,1.129,1.679,2.1,2.493,3.174,6.377,8.415,14.766,7.81,19.949-1.635,3.164-5.767,4.306-12.231,5.28-18.664.405-2.675.915-5.301,1.706-7.874.984-2.256,1.268-4.68,1.612-7.091.167-.684.469-1.305.889-1.868.576-.553,1.188-.593,1.835-.123Z" style="fill: #221d17;"/>
          <path d="M1054.9,1481.947c-2.772-.503-4.108-2.653-5.499-4.514-22.953-30.692-44.714-62.168-64.621-94.963-13.599-22.403-26.682-45.132-41.152-67.014-9.02-13.64-16.006-28.535-25.298-42.03-21.384-31.054-44.036-61.041-71.555-87.083-18.113-17.142-33.469-36.714-48.876-56.262-18.153-23.032-35.892-46.408-55.393-68.364-6.084-6.851-12.241-13.695-17.485-21.261-1.506-2.172-2.979-4.367-4.624-6.78,3.049-2.098,6.149-2.233,9.151-2.843,7.312-1.484,8.213-3.419,5.196-10.137-5.049-11.243-9.93-22.555-13.773-34.283-.419-1.277-.753-2.589-1.266-3.827-3.043-7.34-2.257-13.248,3.314-19.897,7.719-9.212,13.641-19.935,20.259-30.059,2.838-4.34,5.983-8.396,9.836-11.88,4.48-4.049,5.734-3.948,8.354,1.459,6.482,13.378,14.914,25.543,23.335,37.698,7.651,11.043,15.75,21.773,23.49,32.756,11.879,16.857,23.49,33.968,33.113,52.178,15.225,28.809,32.81,56.052,51.382,82.754,16.119,23.175,32.238,46.371,47.544,70.083,15.428,23.902,30.313,48.236,41.78,74.352,11.79,26.853,23.192,53.873,30.949,82.303,3.828,14.03,9.144,27.648,13.556,41.525,4.069,12.798,7.534,25.792,11.802,38.52,4.769,14.222,9.538,28.46,15.189,42.375.631,1.553,2.114,2.936,1.292,5.194Z" style="fill: #29395d;"/>
          <path d="M1076.989,1477.939c-.03-2.736.508-5.084,1.52-7.387,5.438-12.377,8.865-25.336,10.72-38.694,1.817-13.085,4.948-25.911,7.456-38.856,2.139-11.039,2.683-22.191,3.39-33.327.497-7.824.367-15.717.037-23.558-.668-15.873-1.041-31.757-2.233-47.616-.567-7.543-.418-15.177.44-22.819.796-7.089.602-14.362.078-21.498-.278-3.783-.731-7.563-.72-11.368.046-15.256-1.94-30.33-3.815-45.429-1.267-10.202-2.156-20.458-2.973-30.709-1.544-19.352-5.633-38.091-13.769-55.756-5.344-11.602-11.656-22.72-17.857-33.906-9.231-16.651-17.344-33.922-25.787-50.638.515-1.164,1.185-1.448,1.781-1.216,14.39,5.612,29.364,9.786,43.026,17.188,13.187,7.145,24.864,16.145,32.719,29.186,5.339,8.864,8.689,18.645,11.365,28.622,6.785,25.295,11.857,50.937,15.688,76.843,1.503,10.164,3.311,20.299,5.444,30.349,1.91,9,2.241,18.177,3.759,27.215,2.22,13.217,4.212,26.475,6.14,39.739,1.253,8.621,2.628,17.22,3.512,25.903,1.154,11.331,2.939,22.596,4.361,33.901,1.254,9.974,2.433,19.957,3.555,29.947,1.62,14.429,2.873,28.897,5.075,43.262,1.15,7.507,2.338,15.049,2.756,22.616.363,6.584,1.892,12.85,3.687,19.061,1.254,4.338-.09,6.776-3.333,9.791-10.937,10.168-24.497,16.511-36.123,25.619-.911.714-1.958,1.289-3.099.861-6.372-2.395-12.345.366-18.424,1.427-4.621.807-9.217,1.839-13.752,3.041-4.204,1.114-7.95,1.702-12.098-1.003-2.717-1.772-6.584-.429-9.938-.45-.859-.005-1.717-.223-2.587-.344Z" style="fill: #29395d;"/>
          <path d="M970.883,1016.302c11.28,17.202,18.419,36.328,25.514,55.439,10.009,26.957,16.016,55.043,22.922,82.873,7.733,31.163,12.194,62.873,16.444,94.646,3.782,28.276,5.214,56.682,6.222,85.147.543,15.319-.866,30.463-2.778,45.611-1.029,8.155-1.797,16.343-2.702,24.698-1.741-1.197-1.784-3.07-2.302-4.689-7.647-23.904-14.915-47.937-23.015-71.687-11.597-34.005-25.889-66.811-44.083-97.93-15.645-26.759-32.939-52.376-50.751-77.695-10.709-15.223-20.999-30.74-31.626-46.022-1.886-2.712-1.853-4.572-.392-7.686,10.664-22.723,23.366-44.444,33.12-67.609,2.675-6.352,4.906-12.851,6.887-19.581,2.607.859,3.451,3.125,4.669,4.875,9.605,13.804,19.081,27.697,28.655,41.522,2.553,3.686,5.257,7.271,7.991,10.827,1.086,1.412,2.393,2.666,3.681,3.908,1.41,1.359,3.145,1.855,4.931.943,1.552-.792,2.071-2.371,1.905-4.02-.606-6.017-1.137-12.049-1.994-18.033-1.492-10.42-3.206-20.809-4.827-31.211-.114-1.662-1.807-3.881,1.526-4.327Z" style="fill: #b7b7bf;"/>
          <path d="M961.659,974.964c4.338,1.39,6.77,4.56,10.027,6.418,15.374,8.768,30.235,18.469,46.278,26.012,4.96,2.332,8.586,5.57,10.877,10.38,5.883,12.346,12.625,24.27,17.985,36.873,3.254,7.652,7.477,14.812,11.628,21.989,7.198,12.443,13.749,25.205,18.558,38.755,4.578,12.899,7.129,26.284,8.428,39.92,1.102,11.562,2.651,23.084,3.598,34.656,1.093,13.369,3.257,26.641,3.171,40.122-.154,24.232-.774,48.495.199,72.688.793,19.721.934,39.423,1.193,59.139.178,13.529-2.04,26.703-4.837,39.869-2.691,12.672-5.04,25.424-7.233,38.193-1.375,8.009-3.915,15.613-6.792,23.147-1.676,4.39-3.68,8.704-4.174,13.423-.323,3.089-1.894,4.16-4.785,4.447-2.941.292-4.601-.729-5.571-3.515-5.893-16.92-11.873-33.81-17.793-50.721-.592-1.691-.471-3.442-.451-5.254.115-10.088.931-20.131,1.763-30.166.774-9.349,1.819-18.686,3.133-27.974.442-3.126.674-6.216.796-9.346.766-19.515-.372-39.009-1.568-58.447-1.124-18.259-3.398-36.451-6.057-54.599-2.753-18.79-5.293-37.623-8.746-56.284-2.845-15.373-7.065-30.488-10.466-45.764-4.674-20.991-10.17-41.736-17.384-62.015-8.505-23.91-18.418-47.14-31.712-68.859-6.007-9.813-10.161-20.371-10.066-33.089Z" style="fill: #29395d;"/>
          <path d="M1145.836,1556.733c-.665-6.826-1.262-12.825-1.831-18.826-1.694-17.859-4.786-35.521-7.668-53.206-.633-3.885.192-6.324,3.715-8.17,2.962-1.552,5.517-3.895,8.501-5.392,17.182-8.621,31.301-21.028,42.869-36.094,8.737-11.379,19.626-18.664,33.207-22.651,26.057-7.649,52.444-13.726,79.346-17.501,9.127-1.281,17.99-3.615,26.781-6.338,8.361-2.591,16.827-4.806,25.702-4.609,1.793.04,3.611-.002,5.371.281,5.409.87,6.819,3.149,5.325,8.39-2.026,7.104-6.985,11.893-12.857,15.833-6.931,4.65-14.657,7.729-22.404,10.688-15.275,5.835-30.6,11.538-45.89,17.335-5.26,1.994-10.208,4.616-14.843,7.809-1.6,1.102-3.35,2.085-4.276,4.217,2.626.962,4.586-.101,6.533-.984,20.223-9.167,41.339-16.066,61.892-24.394,6.855-2.778,13.723-5.511,20.048-9.424,4.045-2.503,7.865-5.339,10.543-9.265,2.495-3.658,5.857-6.069,9.537-8.24,15.921-9.392,32.815-16.504,50.665-21.25,8.445-2.245,16.91-4.395,25.178-7.232,2.587-.888,5.179-1.495,7.907-1.158,3.992.493,5.418,2.558,4.525,6.531-.614,2.733-2.312,4.808-4.263,6.711-4.713,4.598-10.15,8.195-16.166,10.74-14.696,6.218-27.321,15.359-38.437,26.671-12.399,12.617-27.661,21.285-42.169,31.033-33.311,22.381-69.605,38.834-106.53,54.048-11.655,4.802-22.4,11.299-33.42,17.281-24.043,13.05-48.88,24.467-73.614,36.102-.787.37-1.664.549-3.276,1.066Z" style="fill: #dab392;"/>
          <path d="M785.849,891.898c2.078,3.341,3.475,5.834,5.102,8.165,10.326,14.794,22.048,28.308,36.526,39.232,2.521,1.902,4.846,3.931,6.915,6.335,7.163,8.321,16.873,13.222,25.863,19.107,18.367,12.024,37.257,23.246,55.133,36.02,1.094.782,2.039,1.792,3.184,2.477,2.323,1.389,2.578,3.105,1.876,5.667-3.157,11.512-7.606,22.538-13.006,33.114-8.867,17.369-18.16,34.52-26.579,52.118-.486,1.015-.926,2.049-2.038,2.626-1.774-.738-2.347-2.545-3.315-3.964-7.588-11.126-14.522-22.653-20.873-34.526-19.512-36.482-42.492-70.712-67.339-103.729-5.533-7.353-10.756-14.911-15.66-22.701-1.481-2.352-1.699-4.169-.161-6.705,6.071-10.016,10.204-20.922,14.371-33.237Z" style="fill: #abaab0;"/>
          <path d="M1096.221,1484.518c10.453-1.808,20.107-3.466,29.756-5.155,3.195-.559,4.796.167,5.291,3.936,2.831,21.532,7.186,42.856,8.658,64.581.304,4.481.851,8.972.466,13.423-1.657,19.191-1.764,38.521-5.071,57.566-.192,1.104-.294,2.225-.538,3.316-.543,2.425-1.853,3.35-4.392,2.432-6.316-2.286-12.653-4.518-19.029-6.63-2.595-.859-3.316-2.44-3.098-5.033,1.259-14.994.39-30.033.76-45.052.508-20.652-1.054-41.224-5.055-61.536-1.432-7.271-4.076-14.189-7.749-21.849Z" style="fill: #b7b7bf;"/>
          <path d="M771.411,787.947c-1.042,7.491.833,16.175,3.476,24.793,1.522,4.961,2.441,9.895-1,14.702-3.057,4.27-5.317,5.251-10.213,3.4-5.946-2.247-10.011-6.644-13.225-11.896-4.584-7.49-7.515-15.71-10.259-23.998-3.657-11.046-6.979-22.187-8.404-33.776-1.137-9.246-.903-18.346,4.323-26.578.835-1.315,1.931-2.462,2.871-3.714,1.564-2.085,2.934-2.588,5.503-.872,17.74,11.85,26.889,28.236,26.927,49.628.004,2.239,0,4.477,0,8.311Z" style="fill: #dab392;"/>
          <path d="M862.139,956.808c8.346,1.527,16.541,3.729,25.023,4.697,21.452,2.448,40.391-2.505,56.114-17.845,2.398-2.34,4.861-4.614,7.293-6.918,2.523-.168,2.288,1.171,1.529,2.797-4.809,12.51-8.135,25.538-13.279,37.933-2.832,6.825-5.995,13.49-9.733,19.855-2.255,3.839-3.411,4.102-6.887,1.578-20.277-14.722-42.418-26.55-63.044-40.725.037-2.541,1.641-1.672,2.984-1.371Z" style="fill: #dab392;"/>
          <path d="M953.179,958.468c3.653,21.38,7.341,42.754,10.944,64.142,2.118,12.57,4.11,25.162,6.131,37.749.246,1.531.323,3.089.003,4.913-15.636-18.318-28.017-38.954-42.208-58.247,9.56-11.824,14.324-25.994,19.876-39.767,1.002-2.485,1.886-5.016,2.825-7.526.67-.691.979-2.076,2.431-1.264Z" style="fill: #abaab0;"/>
          <path d="M1004.203,822.865c1.374-13.377-1.115-25.48.121-37.825,1.809-18.065,2.495-36.24,6.887-53.967.323-1.305.683-2.604.931-3.923.557-2.963,2.381-5.121,5.178-5.497,2.38-.319,3.869,1.989,5.147,3.833,3.398,4.902,5.012,10.57,6.019,16.289,3.21,18.245.725,35.739-8.064,52.141-2.765,5.16-5.249,10.363-6.887,16.007-1.383,4.767-3.38,9.281-9.331,12.942Z" style="fill: #dab392;"/>
          <path d="M999.211,738.819c2.435,2.619.859,5.844,1.324,8.761.464,2.913-1.138,6.143,1.337,8.748.392,12.014-.31,23.986-1.372,35.944-.255,2.869-1.721,5.548-1.336,8.518,0,0-.66-.003-.66-.003h-.659c-2.598-2.552-2.209-5.918-1.759-8.879,2.303-15.145.551-30.368,1.22-45.535.116-2.638-.352-5.445,1.903-7.553Z" style="fill: #1b1814;"/>
          <path d="M767.173,923.908c-.632-.701-.825-.845-.925-1.037-1.102-2.106-4.005-4.184-2.722-6.37,1.37-2.334,4.728-1.436,7.798-1.713-.361,3.617-2.484,5.857-4.151,9.12Z" style="fill: #e2e5e4;"/>
          <path d="M970.883,1016.302c-1.713,1.018-.988,2.895-1.526,4.327-1.408-1.614-1.053-3.664-1.372-5.547-.401-1.285-1.083-2.713,1.311-2.575.529,1.265,1.058,2.529,1.587,3.794Z" style="fill: #90969b;"/>
          <path d="M952.098,939.539c-.264-1.067-.208-2.308-1.529-2.798.936-1.793,2.046-3.403,4.166-3.948l-.011-.01c-.046,2.574-1.033,4.783-2.626,6.756Z" style="fill: #988672;"/>
          <path d="M862.139,956.808c-1.045.347-2.297.245-2.984,1.372-.884-.456-1.767-.912-2.65-1.368-.21-1.315.248-1.905,1.625-1.5,1.409.305,2.984.162,4.009,1.497Z" style="fill: #a59277;"/>
          <path d="M969.296,1012.508c-1.013.565-.956,1.675-1.311,2.575-.344-.791-.776-1.557-1.009-2.379-.232-.819-.351-2.163.398-2.316,1.293-.265,1.666,1.037,1.922,2.121Z" style="fill: #4d5758;"/>
          <path d="M953.179,958.468c-.81.421-1.62.843-2.431,1.264-.282-1.912.613-3.28,1.917-4.587.805,1.16.767,2.228.514,3.323Z" style="fill: #7f8689;"/>
          <path d="M858.131,955.311c-.542.5-1.083,1-1.625,1.5-1.353-.462-2.551-1.149-3.4-2.341.634-.705,1.351-.802,2.15-.291,1.094.032,2.121.236,2.875,1.132Z" style="fill: #7a6c5c;"/>
          <path d="M855.256,954.179c-.714.097-1.428.194-2.146.291-.606-.053-1.254-.128-1.304-.876-.013-.199.468-.58.76-.623,1.122-.163,1.904.553,2.691,1.208Z" style="fill: #4b5e5a;"/>
          <path d="M1144.644,1599.509h-.641s-.641.014-.641.014c-.04-1.06-.31-2.168.596-3.06.995.866.679,1.991.687,3.045Z" style="fill: #1d273c;"/>
          <path d="M954.736,932.793c.162-.341.324-.682.486-1.023.904.863.091.883-.497,1.014,0,0,.011.01.011.01Z" style="fill: #625d5c;"/>
          <path d="M999.211,738.819c-.012,7.572-.344,15.16.034,22.712.658,13.143-1.303,26.16-1.398,39.256-.018.442-.024.883-.018,1.325-1.629,2.018.237,4.72-1.323,6.751-1.425,8.341-2.371,16.77-5.316,24.805-1.597,4.356-3.918,8.053-7.902,10.49-6.015,3.68-10.966,2.813-15.327-2.685-1.94-2.446-3.664-5.065-5.473-7.614-2.231-3.144-5.229-4.74-9.119-4.809-11.636-.207-23.148,1.204-34.704,2.258-5.506.502-10.312,2.373-15.337,4.273-8.191,3.096-16.986,2.29-25.266,1.075-9.114-1.337-17.963-3.315-27.162-.994-1.904.48-4.021.113-6.04.147-9.622.161-14.295,3.84-16.718,13.188-.504,1.943-.858,3.926-1.405,5.856-1.675,5.912-6.043,8.974-12.278,9.328-4.574.259-8.868-1.066-13.26-1.738-3.172-.485-5.593-2.593-7.058-5.685-5.206-10.987-8.509-22.58-10.389-34.514-1.973-12.525-3.175-25.163-5.048-37.717-.913-6.118-1.439-12.395-1.937-18.625-1.43-17.894-1.637-35.803-1.017-53.684.417-12.018,2.714-23.836,7.649-35.103,4.454-10.168,12.284-15.593,22.388-18.634,17.344-5.22,35.172-8.245,52.996-11.042,18.658-2.927,37.578-2.016,56.342-1.304,17.189.652,34.057,3.969,50.281,10.259,19.019,7.374,30.178,20.78,31.25,41.688.696,13.579,2.372,27.114,2.556,40.738Z" style="fill: #030102;"/>
          <path d="M873.408,850.622c10.443,1.021,22.406-1.362,34.472-1.664,8.1-.203,16.279-2.137,24.434-3.215,1.104-.146,2.2-.391,3.308-.464,9.163-.6,14.159,1.262,13.815,12.815-.638,21.423-8.346,39.3-26.3,51.558-9.362,6.392-20.002,8.665-31.741,7.208-20.321-2.522-35.226-13.078-46.941-29.045-4.606-6.279-6.677-13.701-7.479-21.261-.504-4.748,1.376-9.247,5.964-11.867,4.543-2.594,9.457-3.976,14.693-4.049,4.704-.066,9.41-.014,15.775-.014Z" style="fill: #020102;"/>
          <path d="M996.505,808.863c.295-2.279-.874-4.845,1.324-6.751-.301,2.278.902,4.85-1.324,6.751Z" style="fill: #1b1814;"/>
          <path d="M895.116,648.847c14.521,1.149,29.148.814,43.562,3.433,8.641,1.571,16.958,4.164,25.15,7.238,18.087,6.788,28.673,19.166,29.74,39.048,1.068,19.916,3.128,39.789,2.061,59.778-.107,2.009-.105,4.052.124,6.047,1.08,9.407,1.207,18.748-.635,28.115-2.159,10.982-2.546,22.254-5.244,33.163-.81,3.277-1.797,6.484-3.315,9.491-1.333,2.642-3.131,4.856-6.008,6.081-4.787,2.039-6.591,1.697-9.873-2.424-2.093-2.629-3.963-5.436-6.088-8.038-3.161-3.87-7.248-5.869-12.337-5.703-13.221.432-26.402,1.42-39.541,2.916-1.961.223-4.034.843-5.724,1.84-9.232,5.444-19.308,4.572-28.839,2.555-13.506-2.858-26.764-1.804-40.133-.318-4.732.526-8.217,3.231-10.544,7.487-2.181,3.989-3.265,8.323-4.449,12.641-1.809,6.601-4.418,8.488-11.149,7.81-3.117-.314-6.205-.91-9.309-1.356-3.391-.488-4.726-3.088-5.974-5.777-4.936-10.63-8.381-21.748-10.168-33.308-2.291-14.821-4.761-29.645-6.19-44.56-1.966-20.525-3.226-41.147-1.835-61.781.725-10.755,3.074-21.254,6.634-31.467,3.24-9.296,9.293-15.498,18.762-18.683,13.867-4.665,28.178-7.299,42.497-9.908,16.131-2.94,32.387-4.721,48.826-4.318Z" style="fill: #dab392;"/>
          <path d="M931.019,850.694c2.466,0,4.948-.179,7.395.039,4.446.397,6.324,2.399,6.634,6.892.233,3.381-.33,6.718-1.023,10.01-2.301,10.92-6.584,21.103-13.776,29.574-9.784,11.525-22.822,16.157-37.827,15.293-20.637-1.188-42.673-18.143-49.066-37.717-.556-1.703-1.063-3.437-1.4-5.193-1.232-6.423,1.104-10.276,7.458-12.213,3.012-.919,6.13-1.373,9.294-1.343,16.85.163,33.598-1.569,50.372-2.771,2.893-.207,5.817-.624,8.617-1.36,4.393-1.155,8.821-1.533,13.323-1.211Z" style="fill: #dab392;"/>
        </g>
      </g>
    </g>
  </g>
</svg>